<svg width="500" height="187" viewBox="0 0 500 187" fill="none" xmlns="http://www.w3.org/2000/svg">
<rect y="135.016" width="500" height="51.9412" fill="#1777AC"/>
<path fill-rule="evenodd" clip-rule="evenodd" d="M0 0L13.8918 7.50464C27.7748 15.0005 55.5585 30.0009 83.3333 45.0014C111.108 60.0019 138.892 75.0024 166.667 64.9991C194.442 55.0047 222.225 19.9977 250 25.0037C277.775 30.0009 305.559 75.0024 333.333 82.507C361.108 90.0029 388.892 60.0019 416.667 42.5028C444.442 25.0037 472.225 19.9977 486.108 17.4991L500 15.0005V135.004H486.108C472.225 135.004 444.442 135.004 416.667 135.004C388.892 135.004 361.108 135.004 333.333 135.004C305.559 135.004 277.775 135.004 250 135.004C222.225 135.004 194.442 135.004 166.667 135.004C138.892 135.004 111.108 135.004 83.3333 135.004C55.5585 135.004 27.7748 135.004 13.8918 135.004H0V0Z" fill="#1777AC"/>
</svg>
